<svg id="Capa_1" enable-background="new 0 0 512 512" height="512" viewBox="0 0 512 512" width="512" xmlns="http://www.w3.org/2000/svg"><g><path d="m0 81h512v350h-512z" fill="#4d578c"/><path d="m256 81h256v350h-256z" fill="#303a6d"/><path d="m80 145h96v30h-96z" fill="#f0f7ff"/><path d="m80 273h96v30h-96z" fill="#f0f7ff"/><path d="m272 273h96v30h-96z" fill="#dfe7f4"/><path d="m144 337h96v30h-96z" fill="#f0f7ff"/><path d="m344 337h96v30h-96z" fill="#dfe7f4"/><path d="m336 145h96v30h-96z" fill="#dfe7f4"/><path d="m272 209h96v30h-96z" fill="#dfe7f4"/><path d="m208 145h32v30h-32z" fill="#f0f7ff"/><path d="m272 145h32v30h-32z" fill="#dfe7f4"/><g fill="#f0f7ff"><path d="m80 209h32v30h-32z"/><path d="m80 337h32v30h-32z"/><path d="m144 209h32v30h-32z"/><path d="m208 209h32v30h-32z"/></g><path d="m400 209h32v30h-32z" fill="#dfe7f4"/></g></svg>